<svg preserveAspectRatio="none" viewBox="4 5 369 410" fill="none" xmlns="http://www.w3.org/2000/svg" class="bg-image bg-green"><g filter="url(#filter0_ddddd_4350_2228)"><path fill-rule="evenodd" clip-rule="evenodd" d="M12 10C10.8954 10 10 10.8954 10 12V144.876C10 145.126 10.0468 145.374 10.138 145.606L19.362 169.137C19.4532 169.369 19.5 169.617 19.5 169.867V257.707C19.5 258.002 19.4345 258.294 19.3082 258.561L10.1918 277.848C10.0655 278.116 10 278.408 10 278.703V407C10 408.105 10.8954 409 12 409H171.789C172.107 409 172.42 408.924 172.703 408.779L187.364 401.245C187.647 401.1 187.96 401.024 188.278 401.024H276.808C277.913 401.024 278.808 401.92 278.808 403.024V407C278.808 408.105 279.704 409 280.808 409H365C366.105 409 367 408.105 367 407V283.514V164.04V12C367 10.8954 366.105 10 365 10H12ZM11 141.654C11 141.883 11.0394 142.11 11.1165 142.326L20.8799 169.664C20.9594 169.886 20.9988 170.121 20.9964 170.357L20.0058 267.429C20.002 267.802 19.8937 268.167 19.6933 268.482L13.3041 278.522C13.1053 278.835 12.9971 279.196 12.9917 279.566L11.5073 380.504C11.5025 380.83 11.5772 381.152 11.725 381.442L24.4436 406.408C24.785 407.078 25.4736 407.5 26.2257 407.5H171.04C171.343 407.5 171.641 407.431 171.914 407.299L188.576 399.206C188.855 399.071 189.161 399.002 189.472 399.005L278.35 399.977C279.512 399.989 280.418 400.985 280.321 402.142L280.182 403.821C280.084 404.992 281.012 405.994 282.186 405.987L363.995 405.512C365.101 405.505 365.992 404.601 365.983 403.495L365 286L366 161L365.507 13.9933C365.503 12.8913 364.609 12 363.507 12H13C11.8954 12 11 12.8954 11 14V141.654Z" fill="#C6FFDD"></path><path fill-rule="evenodd" clip-rule="evenodd" d="M12 10C10.8954 10 10 10.8954 10 12V144.876C10 145.126 10.0468 145.374 10.138 145.606L19.362 169.137C19.4532 169.369 19.5 169.617 19.5 169.867V257.707C19.5 258.002 19.4345 258.294 19.3082 258.561L10.1918 277.848C10.0655 278.116 10 278.408 10 278.703V407C10 408.105 10.8954 409 12 409H171.789C172.107 409 172.42 408.924 172.703 408.779L187.364 401.245C187.647 401.1 187.96 401.024 188.278 401.024H276.808C277.913 401.024 278.808 401.92 278.808 403.024V407C278.808 408.105 279.704 409 280.808 409H365C366.105 409 367 408.105 367 407V283.514V164.04V12C367 10.8954 366.105 10 365 10H12ZM11 141.654C11 141.883 11.0394 142.11 11.1165 142.326L20.8799 169.664C20.9594 169.886 20.9988 170.121 20.9964 170.357L20.0058 267.429C20.002 267.802 19.8937 268.167 19.6933 268.482L13.3041 278.522C13.1053 278.835 12.9971 279.196 12.9917 279.566L11.5073 380.504C11.5025 380.83 11.5772 381.152 11.725 381.442L24.4436 406.408C24.785 407.078 25.4736 407.5 26.2257 407.5H171.04C171.343 407.5 171.641 407.431 171.914 407.299L188.576 399.206C188.855 399.071 189.161 399.002 189.472 399.005L278.35 399.977C279.512 399.989 280.418 400.985 280.321 402.142L280.182 403.821C280.084 404.992 281.012 405.994 282.186 405.987L363.995 405.512C365.101 405.505 365.992 404.601 365.983 403.495L365 286L366 161L365.507 13.9933C365.503 12.8913 364.609 12 363.507 12H13C11.8954 12 11 12.8954 11 14V141.654Z" stroke="#C6FFDD"></path></g><defs><filter id="filter0_ddddd_4350_2228" x="0.564965" y="0.564965" width="375.87" height="417.87" filterUnits="userSpaceOnUse" color-interpolation-filters="sRGB"><feFlood flood-opacity="0" result="BackgroundImageFix"></feFlood><feColorMatrix in="SourceAlpha" type="matrix" values="0 0 0 0 0 0 0 0 0 0 0 0 0 0 0 0 0 0 127 0" result="hardAlpha"></feColorMatrix><feOffset></feOffset><feGaussianBlur stdDeviation="0.186147"></feGaussianBlur><feColorMatrix type="matrix" values="0 0 0 0 0.0941176 0 0 0 0 0.831373 0 0 0 0 0.388235 0 0 0 1 0"></feColorMatrix><feBlend mode="normal" in2="BackgroundImageFix" result="effect1_dropShadow_4350_2228"></feBlend><feColorMatrix in="SourceAlpha" type="matrix" values="0 0 0 0 0 0 0 0 0 0 0 0 0 0 0 0 0 0 127 0" result="hardAlpha"></feColorMatrix><feOffset></feOffset><feGaussianBlur stdDeviation="0.372293"></feGaussianBlur><feColorMatrix type="matrix" values="0 0 0 0 0.0941176 0 0 0 0 0.831373 0 0 0 0 0.388235 0 0 0 1 0"></feColorMatrix><feBlend mode="normal" in2="effect1_dropShadow_4350_2228" result="effect2_dropShadow_4350_2228"></feBlend><feColorMatrix in="SourceAlpha" type="matrix" values="0 0 0 0 0 0 0 0 0 0 0 0 0 0 0 0 0 0 127 0" result="hardAlpha"></feColorMatrix><feOffset></feOffset><feGaussianBlur stdDeviation="1.30303"></feGaussianBlur><feColorMatrix type="matrix" values="0 0 0 0 0.0941176 0 0 0 0 0.831373 0 0 0 0 0.388235 0 0 0 1 0"></feColorMatrix><feBlend mode="normal" in2="effect2_dropShadow_4350_2228" result="effect3_dropShadow_4350_2228"></feBlend><feColorMatrix in="SourceAlpha" type="matrix" values="0 0 0 0 0 0 0 0 0 0 0 0 0 0 0 0 0 0 127 0" result="hardAlpha"></feColorMatrix><feOffset></feOffset><feGaussianBlur stdDeviation="2.60605"></feGaussianBlur><feColorMatrix type="matrix" values="0 0 0 0 0.0941176 0 0 0 0 0.831373 0 0 0 0 0.388235 0 0 0 1 0"></feColorMatrix><feBlend mode="normal" in2="effect3_dropShadow_4350_2228" result="effect4_dropShadow_4350_2228"></feBlend><feColorMatrix in="SourceAlpha" type="matrix" values="0 0 0 0 0 0 0 0 0 0 0 0 0 0 0 0 0 0 127 0" result="hardAlpha"></feColorMatrix><feOffset></feOffset><feGaussianBlur stdDeviation="4.46752"></feGaussianBlur><feColorMatrix type="matrix" values="0 0 0 0 0.0941176 0 0 0 0 0.831373 0 0 0 0 0.388235 0 0 0 1 0"></feColorMatrix><feBlend mode="normal" in2="effect4_dropShadow_4350_2228" result="effect5_dropShadow_4350_2228"></feBlend><feBlend mode="normal" in="SourceGraphic" in2="effect5_dropShadow_4350_2228" result="shape"></feBlend></filter><filter id="filter1_dddddd_4350_2228" x="303.364" y="10.3637" width="66.2726" height="37.2726" filterUnits="userSpaceOnUse" color-interpolation-filters="sRGB"><feFlood flood-opacity="0" result="BackgroundImageFix"></feFlood><feColorMatrix in="SourceAlpha" type="matrix" values="0 0 0 0 0 0 0 0 0 0 0 0 0 0 0 0 0 0 127 0" result="hardAlpha"></feColorMatrix><feOffset></feOffset><feGaussianBlur stdDeviation="0.186147"></feGaussianBlur><feColorMatrix type="matrix" values="0 0 0 0 0.0941176 0 0 0 0 0.831373 0 0 0 0 0.388235 0 0 0 1 0"></feColorMatrix><feBlend mode="normal" in2="BackgroundImageFix" result="effect1_dropShadow_4350_2228"></feBlend><feColorMatrix in="SourceAlpha" type="matrix" values="0 0 0 0 0 0 0 0 0 0 0 0 0 0 0 0 0 0 127 0" result="hardAlpha"></feColorMatrix><feOffset></feOffset><feGaussianBlur stdDeviation="0.372293"></feGaussianBlur><feColorMatrix type="matrix" values="0 0 0 0 0.0941176 0 0 0 0 0.831373 0 0 0 0 0.388235 0 0 0 1 0"></feColorMatrix><feBlend mode="normal" in2="effect1_dropShadow_4350_2228" result="effect2_dropShadow_4350_2228"></feBlend><feColorMatrix in="SourceAlpha" type="matrix" values="0 0 0 0 0 0 0 0 0 0 0 0 0 0 0 0 0 0 127 0" result="hardAlpha"></feColorMatrix><feOffset></feOffset><feGaussianBlur stdDeviation="1.30303"></feGaussianBlur><feColorMatrix type="matrix" values="0 0 0 0 0.0941176 0 0 0 0 0.831373 0 0 0 0 0.388235 0 0 0 1 0"></feColorMatrix><feBlend mode="normal" in2="effect2_dropShadow_4350_2228" result="effect3_dropShadow_4350_2228"></feBlend><feColorMatrix in="SourceAlpha" type="matrix" values="0 0 0 0 0 0 0 0 0 0 0 0 0 0 0 0 0 0 127 0" result="hardAlpha"></feColorMatrix><feOffset></feOffset><feGaussianBlur stdDeviation="2.60605"></feGaussianBlur><feColorMatrix type="matrix" values="0 0 0 0 0.0941176 0 0 0 0 0.831373 0 0 0 0 0.388235 0 0 0 1 0"></feColorMatrix><feBlend mode="normal" in2="effect3_dropShadow_4350_2228" result="effect4_dropShadow_4350_2228"></feBlend><feColorMatrix in="SourceAlpha" type="matrix" values="0 0 0 0 0 0 0 0 0 0 0 0 0 0 0 0 0 0 127 0" result="hardAlpha"></feColorMatrix><feOffset></feOffset><feGaussianBlur stdDeviation="4.46752"></feGaussianBlur><feColorMatrix type="matrix" values="0 0 0 0 0.0941176 0 0 0 0 0.831373 0 0 0 0 0.388235 0 0 0 1 0"></feColorMatrix><feBlend mode="normal" in2="effect4_dropShadow_4350_2228" result="effect5_dropShadow_4350_2228"></feBlend><feColorMatrix in="SourceAlpha" type="matrix" values="0 0 0 0 0 0 0 0 0 0 0 0 0 0 0 0 0 0 127 0" result="hardAlpha"></feColorMatrix><feOffset></feOffset><feGaussianBlur stdDeviation="7.81816"></feGaussianBlur><feColorMatrix type="matrix" values="0 0 0 0 0.0941176 0 0 0 0 0.831373 0 0 0 0 0.388235 0 0 0 1 0"></feColorMatrix><feBlend mode="normal" in2="effect5_dropShadow_4350_2228" result="effect6_dropShadow_4350_2228"></feBlend><feBlend mode="normal" in="SourceGraphic" in2="effect6_dropShadow_4350_2228" result="shape"></feBlend></filter><filter id="filter2_dddddd_4350_2228" x="278.364" y="22.3637" width="91.2726" height="37.2726" filterUnits="userSpaceOnUse" color-interpolation-filters="sRGB"><feFlood flood-opacity="0" result="BackgroundImageFix"></feFlood><feColorMatrix in="SourceAlpha" type="matrix" values="0 0 0 0 0 0 0 0 0 0 0 0 0 0 0 0 0 0 127 0" result="hardAlpha"></feColorMatrix><feOffset></feOffset><feGaussianBlur stdDeviation="0.186147"></feGaussianBlur><feColorMatrix type="matrix" values="0 0 0 0 0.0941176 0 0 0 0 0.831373 0 0 0 0 0.388235 0 0 0 1 0"></feColorMatrix><feBlend mode="normal" in2="BackgroundImageFix" result="effect1_dropShadow_4350_2228"></feBlend><feColorMatrix in="SourceAlpha" type="matrix" values="0 0 0 0 0 0 0 0 0 0 0 0 0 0 0 0 0 0 127 0" result="hardAlpha"></feColorMatrix><feOffset></feOffset><feGaussianBlur stdDeviation="0.372293"></feGaussianBlur><feColorMatrix type="matrix" values="0 0 0 0 0.0941176 0 0 0 0 0.831373 0 0 0 0 0.388235 0 0 0 1 0"></feColorMatrix><feBlend mode="normal" in2="effect1_dropShadow_4350_2228" result="effect2_dropShadow_4350_2228"></feBlend><feColorMatrix in="SourceAlpha" type="matrix" values="0 0 0 0 0 0 0 0 0 0 0 0 0 0 0 0 0 0 127 0" result="hardAlpha"></feColorMatrix><feOffset></feOffset><feGaussianBlur stdDeviation="1.30303"></feGaussianBlur><feColorMatrix type="matrix" values="0 0 0 0 0.0941176 0 0 0 0 0.831373 0 0 0 0 0.388235 0 0 0 1 0"></feColorMatrix><feBlend mode="normal" in2="effect2_dropShadow_4350_2228" result="effect3_dropShadow_4350_2228"></feBlend><feColorMatrix in="SourceAlpha" type="matrix" values="0 0 0 0 0 0 0 0 0 0 0 0 0 0 0 0 0 0 127 0" result="hardAlpha"></feColorMatrix><feOffset></feOffset><feGaussianBlur stdDeviation="2.60605"></feGaussianBlur><feColorMatrix type="matrix" values="0 0 0 0 0.0941176 0 0 0 0 0.831373 0 0 0 0 0.388235 0 0 0 1 0"></feColorMatrix><feBlend mode="normal" in2="effect3_dropShadow_4350_2228" result="effect4_dropShadow_4350_2228"></feBlend><feColorMatrix in="SourceAlpha" type="matrix" values="0 0 0 0 0 0 0 0 0 0 0 0 0 0 0 0 0 0 127 0" result="hardAlpha"></feColorMatrix><feOffset></feOffset><feGaussianBlur stdDeviation="4.46752"></feGaussianBlur><feColorMatrix type="matrix" values="0 0 0 0 0.0941176 0 0 0 0 0.831373 0 0 0 0 0.388235 0 0 0 1 0"></feColorMatrix><feBlend mode="normal" in2="effect4_dropShadow_4350_2228" result="effect5_dropShadow_4350_2228"></feBlend><feColorMatrix in="SourceAlpha" type="matrix" values="0 0 0 0 0 0 0 0 0 0 0 0 0 0 0 0 0 0 127 0" result="hardAlpha"></feColorMatrix><feOffset></feOffset><feGaussianBlur stdDeviation="7.81816"></feGaussianBlur><feColorMatrix type="matrix" values="0 0 0 0 0.0941176 0 0 0 0 0.831373 0 0 0 0 0.388235 0 0 0 1 0"></feColorMatrix><feBlend mode="normal" in2="effect5_dropShadow_4350_2228" result="effect6_dropShadow_4350_2228"></feBlend><feBlend mode="normal" in="SourceGraphic" in2="effect6_dropShadow_4350_2228" result="shape"></feBlend></filter></defs></svg>